<svg width="170" height="170" viewBox="0 0 170 170" fill="none" xmlns="http://www.w3.org/2000/svg">
<path d="M42.8578 67.9438C42.8578 70.345 43.8116 72.6478 45.5095 74.3457C47.2074 76.0436 49.5102 76.9974 51.9114 76.9974C54.3125 76.9974 56.6153 76.0436 58.3132 74.3457C60.0111 72.6478 60.9649 70.345 60.9649 67.9438C60.9649 65.5427 60.0111 63.2399 58.3132 61.542C56.6153 59.8441 54.3125 58.8903 51.9114 58.8903C49.5102 58.8903 47.2074 59.8441 45.5095 61.542C43.8116 63.2399 42.8578 65.5427 42.8578 67.9438ZM109.251 67.9438C109.251 70.345 110.205 72.6478 111.902 74.3457C113.6 76.0436 115.903 76.9974 118.304 76.9974C120.705 76.9974 123.008 76.0436 124.706 74.3457C126.404 72.6478 127.358 70.345 127.358 67.9438C127.358 65.5427 126.404 63.2399 124.706 61.542C123.008 59.8441 120.705 58.8903 118.304 58.8903C115.903 58.8903 113.6 59.8441 111.902 61.542C110.205 63.2399 109.251 65.5427 109.251 67.9438ZM85.1078 0.60791C38.4442 0.60791 0.607788 38.4443 0.607788 85.1079C0.607788 131.772 38.4442 169.608 85.1078 169.608C131.771 169.608 169.608 131.772 169.608 85.1079C169.608 38.4443 131.771 0.60791 85.1078 0.60791ZM134.714 134.714C128.263 141.165 120.756 146.22 112.401 149.765C103.781 153.425 94.5952 155.273 85.1078 155.273C75.6204 155.273 66.4348 153.425 57.7962 149.765C49.4531 146.242 41.8748 141.13 35.4829 134.714C29.0322 128.263 23.9773 120.756 20.4313 112.401C16.791 103.781 14.9426 94.5953 14.9426 85.1079C14.9426 75.6205 16.791 66.4349 20.4502 57.7963C23.9737 49.4533 29.0857 41.8749 35.5018 35.483C41.9524 29.0324 49.4593 23.9774 57.815 20.4315C66.4348 16.7912 75.6204 14.9427 85.1078 14.9427C94.5952 14.9427 103.781 16.7912 112.419 20.4503C120.762 23.9738 128.341 29.0859 134.733 35.5019C141.183 41.9526 146.238 49.4595 149.784 57.8152C153.425 66.4349 155.273 75.6205 155.273 85.1079C155.273 94.5953 153.425 103.781 149.765 112.42C146.246 120.759 141.133 128.332 134.714 134.714ZM113.777 89.0688H104.705C103.913 89.0688 103.234 89.6724 103.177 90.4646C102.46 99.8011 94.6329 107.176 85.1078 107.176C75.5827 107.176 67.7362 99.8011 67.0384 90.4646C66.9818 89.6724 66.3028 89.0688 65.5106 89.0688H56.4381C56.2335 89.0686 56.0309 89.11 55.8427 89.1905C55.6546 89.271 55.4847 89.3889 55.3436 89.5371C55.2024 89.6853 55.0929 89.8607 55.0217 90.0526C54.9504 90.2445 54.919 90.4488 54.9292 90.6532C55.7591 106.554 68.9811 119.247 85.1078 119.247C101.234 119.247 114.456 106.554 115.286 90.6532C115.297 90.4488 115.265 90.2445 115.194 90.0526C115.123 89.8607 115.013 89.6853 114.872 89.5371C114.731 89.3889 114.561 89.271 114.373 89.1905C114.185 89.11 113.982 89.0686 113.777 89.0688Z" fill="#F8EDD7"/>
</svg>
